<svg xmlns="http://www.w3.org/2000/svg" width="2400" height="1600" viewBox="0 0 2400 1600" fill="none">
  <defs>
    <linearGradient id="bg" x1="0" y1="0" x2="2400" y2="1600" gradientUnits="userSpaceOnUse">
      <stop offset="0" stop-color="#050811"/>
      <stop offset="0.48" stop-color="#0B1120"/>
      <stop offset="1" stop-color="#0B0D1A"/>
    </linearGradient>

    <radialGradient id="g1" cx="0" cy="0" r="1" gradientUnits="userSpaceOnUse" gradientTransform="translate(480 240) rotate(28) scale(820 600)">
      <stop offset="0" stop-color="#4A84FF" stop-opacity="0.45"/>
      <stop offset="1" stop-color="#4A84FF" stop-opacity="0"/>
    </radialGradient>

    <radialGradient id="g2" cx="0" cy="0" r="1" gradientUnits="userSpaceOnUse" gradientTransform="translate(2000 380) rotate(-24) scale(760 560)">
      <stop offset="0" stop-color="#7D5CFF" stop-opacity="0.38"/>
      <stop offset="1" stop-color="#7D5CFF" stop-opacity="0"/>
    </radialGradient>

    <radialGradient id="g3" cx="0" cy="0" r="1" gradientUnits="userSpaceOnUse" gradientTransform="translate(1260 1320) rotate(-12) scale(980 520)">
      <stop offset="0" stop-color="#2FD6FF" stop-opacity="0.3"/>
      <stop offset="1" stop-color="#2FD6FF" stop-opacity="0"/>
    </radialGradient>

    <linearGradient id="sheet" x1="0" y1="0" x2="0" y2="1">
      <stop offset="0" stop-color="#CDE5FF" stop-opacity="0.14"/>
      <stop offset="1" stop-color="#CDE5FF" stop-opacity="0.03"/>
    </linearGradient>

    <pattern id="noise" x="0" y="0" width="120" height="120" patternUnits="userSpaceOnUse">
      <circle cx="8" cy="8" r="1" fill="#FFFFFF" fill-opacity="0.035"/>
      <circle cx="58" cy="34" r="1" fill="#FFFFFF" fill-opacity="0.03"/>
      <circle cx="100" cy="78" r="1" fill="#FFFFFF" fill-opacity="0.03"/>
      <circle cx="30" cy="96" r="1" fill="#FFFFFF" fill-opacity="0.028"/>
      <circle cx="90" cy="14" r="1" fill="#FFFFFF" fill-opacity="0.028"/>
    </pattern>

    <filter id="blurLarge" x="-20%" y="-20%" width="140%" height="140%">
      <feGaussianBlur stdDeviation="74"/>
    </filter>
  </defs>

  <rect width="2400" height="1600" fill="url(#bg)"/>

  <ellipse cx="460" cy="220" rx="560" ry="420" fill="url(#g1)" filter="url(#blurLarge)"/>
  <ellipse cx="1980" cy="360" rx="520" ry="400" fill="url(#g2)" filter="url(#blurLarge)"/>
  <ellipse cx="1240" cy="1320" rx="740" ry="360" fill="url(#g3)" filter="url(#blurLarge)"/>

  <g opacity="0.42">
    <path d="M180 1260C520 1030 930 970 1350 1085C1730 1188 2030 1150 2270 980" stroke="url(#sheet)" stroke-width="96" stroke-linecap="round"/>
    <path d="M120 420C530 250 930 265 1340 420C1760 580 2080 600 2280 520" stroke="url(#sheet)" stroke-width="70" stroke-linecap="round"/>
  </g>

  <rect width="2400" height="1600" fill="url(#noise)"/>
</svg>
